<?xml version="1.0" encoding="UTF-8" standalone="no"?>
<svg
   viewBox="0 0 512.00001 422.99998"
   version="1.1"
   id="svg87"
   sodipodi:docname="Icone.svg"
   width="512"
   height="423"
   inkscape:version="1.3.2 (091e20e, 2023-11-25, custom)"
   xmlns:inkscape="http://www.inkscape.org/namespaces/inkscape"
   xmlns:sodipodi="http://sodipodi.sourceforge.net/DTD/sodipodi-0.dtd"
   xmlns:xlink="http://www.w3.org/1999/xlink"
   xmlns="http://www.w3.org/2000/svg"
   xmlns:svg="http://www.w3.org/2000/svg">
  <sodipodi:namedview
     id="namedview87"
     pagecolor="#ffffff"
     bordercolor="#000000"
     borderopacity="0.25"
     inkscape:showpageshadow="2"
     inkscape:pageopacity="0.0"
     inkscape:pagecheckerboard="0"
     inkscape:deskcolor="#d1d1d1"
     inkscape:zoom="0.5"
     inkscape:cx="546"
     inkscape:cy="329"
     inkscape:window-width="1920"
     inkscape:window-height="1017"
     inkscape:window-x="1358"
     inkscape:window-y="-8"
     inkscape:window-maximized="1"
     inkscape:current-layer="svg87" />
  <defs
     id="defs7">
    <style
       id="style1">.cls-1{isolation:isolate;}.cls-2{fill:none;}.cls-3{fill:#da1381;}.cls-4{mix-blend-mode:multiply;}.cls-5{fill:#deddf3;}.cls-6{fill:#3d9a98;}.cls-7{fill:#d3d3e5;}.cls-8{fill:#7562e0;}.cls-9{fill:#1f3235;}.cls-10{fill:#005d7f;}.cls-11{fill:#00181e;}.cls-12{fill:#a5a3db;}.cls-13{fill:#8cc6c5;}.cls-14{fill:#e5b7cf;}.cls-15{fill:#998675;}.cls-16{fill:url(#linear-gradient);}.cls-17{fill:url(#linear-gradient-2);}.cls-18{fill:#fff;}</style>
    <linearGradient
       id="linear-gradient"
       x1="12864.5"
       y1="15528.3"
       x2="12864.5"
       y2="15187.71"
       gradientTransform="matrix(-0.06,-1,-1,0.06,16848.19,13630.36)"
       gradientUnits="userSpaceOnUse">
      <stop
         offset="0.17"
         stop-color="#1f191a"
         id="stop1" />
      <stop
         offset="0.2"
         stop-color="#19262d"
         id="stop2" />
      <stop
         offset="0.27"
         stop-color="#103a4a"
         id="stop3" />
      <stop
         offset="0.34"
         stop-color="#094962"
         id="stop4" />
      <stop
         offset="0.42"
         stop-color="#045472"
         id="stop5" />
      <stop
         offset="0.5"
         stop-color="#015b7c"
         id="stop6" />
      <stop
         offset="0.61"
         stop-color="#005d7f"
         id="stop7" />
    </linearGradient>
    <linearGradient
       id="linear-gradient-2"
       x1="12864.39"
       y1="15528.3"
       x2="12864.39"
       y2="15187.71"
       xlink:href="#linear-gradient" />
    <linearGradient
       inkscape:collect="always"
       xlink:href="#linear-gradient"
       id="linearGradient87"
       gradientUnits="userSpaceOnUse"
       gradientTransform="matrix(-0.06,-1,-1,0.06,16848.19,13630.36)"
       x1="12864.5"
       y1="15528.3"
       x2="12864.5"
       y2="15187.71" />
  </defs>
  <g
     class="cls-1"
     id="g87"
     transform="matrix(0.18730908,0,0,0.18730908,-2.363e-6,-0.0010101)">
    <g
       id="Camada_2"
       data-name="Camada 2">
      <g
         id="Camada_1-2"
         data-name="Camada 1">
        <polygon
           class="cls-2"
           points="1373.55,2059.07 1373.58,2059.08 1374.07,2058.77 1374.06,2058.72 1373.55,2059.04 "
           id="polygon7" />
        <polygon
           class="cls-2"
           points="1825.24,996.65 1985.18,895.52 1985.17,895.3 1924.79,933.47 1825.14,996.48 "
           id="polygon8" />
        <polygon
           class="cls-2"
           points="1301.05,1294.93 1301.33,1294.49 1229.54,1260.49 1230.03,1261.29 "
           id="polygon9" />
        <polygon
           class="cls-2"
           points="1828.5,1770.49 1828.5,1771.43 1908.13,1721.08 1907.72,1720.4 "
           id="polygon10" />
        <polygon
           class="cls-2"
           points="1651.11,952.01 1651.3,952.01 1637.61,726.98 1637.41,726.89 1637.38,726.87 1637.41,726.89 "
           id="polygon11" />
        <polygon
           class="cls-2"
           points="349.69,1240.4 349.69,1240.43 349.72,1240.42 "
           id="polygon12" />
        <polygon
           class="cls-2"
           points="1286.66,545.2 1286.65,544.98 1286.43,545.12 1286.63,545.22 "
           id="polygon13" />
        <polygon
           class="cls-2"
           points="725.99,1691.66 725.99,1691.44 674.43,1724.04 674.45,1724.26 "
           id="polygon14" />
        <polygon
           class="cls-3"
           points="1254.69,576.73 991.49,743.16 991.49,743.19 1273.35,876.68 1273.37,876.66 1255.11,576.52 1254.69,576.78 "
           id="polygon15" />
        <polygon
           class="cls-4"
           points="1263.97,186.53 1263.93,186.51 1263.26,186.94 1264.01,187.29 "
           id="polygon16" />
        <path
           class="cls-5"
           d="m 1064.73,994.52 0.1,0.17 30.22,48.77 L 1298.79,914.63 947.48,748.25 959.88,952 h 27.88 c 33.44,0 59.33,14.31 76.97,42.52 z M 957.45,768.24 Z"
           id="path16" />
        <polygon
           class="cls-6"
           points="1637.61,726.98 1637.6,726.74 1637.41,726.86 1637.41,726.89 "
           id="polygon17" />
        <path
           class="cls-5"
           d="m 1525.09,961.31 c 11.7,-6.17 25,-9.3 39.65,-9.3 h 86.37 l -13.7,-225.12 v 0 l -326.56,206.45 167.52,79.33 11.46,-18.25 c 9.26,-14.82 21.17,-25.98 35.26,-33.11 z"
           id="path17" />
        <path
           class="cls-3"
           d="m 1749,952 c 14.62,0 28,3.13 39.65,9.3 14.12,7.13 26,18.29 35.32,33.21 l 0.11,0.17 1.11,1.79 99.65,-63 60.38,-38.17 v 0.22 l 0.29,-0.19 -0.25,-0.11 v 0 0 0 l 0.69,-0.43 -0.06,-1 v 0 0 l 1,0.46 1.63,-1 L 1637.61,727 1651.3,952 Z"
           id="path18" />
        <path
           class="cls-7"
           d="M 2115.27,813 2102,799.75 q 5.28,7.46 10.41,15 z"
           id="path19" />
        <path
           class="cls-3"
           d="M 1175.33,151.45 A 714.92,714.92 0 0 0 884.87,239.8 l 304.61,144.27 z"
           id="path20" />
        <polygon
           class="cls-3"
           points="826.04,895.6 806.83,579.73 803.45,524.2 803.41,524.18 477.26,730.41 596.98,787.11 "
           id="polygon20" />
        <path
           class="cls-8"
           d="m 444.86,691.92 -14.13,-232.16 -83.18,83.18 a 721.29,721.29 0 0 0 -63.63,72.8 l 160.9,76.2 z"
           id="path21" />
        <path
           class="cls-8"
           d="m 513.42,533.54 -0.13,-2.11 2,0.94 326.13,-206.23 v 0 L 821.61,0 a 719.29,719.29 0 0 0 -114,92.83 l -208.86,208.89 14.12,232.16 z"
           id="path22" />
        <path
           class="cls-5"
           d="m 931,379.9 q -19.22,10.74 -37.81,23 L 900.33,521 910.53,688.64 1198,506.85 v -0.48 l -123.8,-58.63 z"
           id="path23" />
        <polygon
           class="cls-9"
           points="1263.26,186.94 1262.79,186.71 1262.82,187.22 "
           id="polygon23" />
        <polygon
           class="cls-9"
           points="1285.55,560.78 1286.03,560.47 1285.51,560.23 "
           id="polygon24" />
        <path
           class="cls-8"
           d="m 1286.08,545.34 20.4,335.34 v 0 0 0 l 1.77,-1.12 -1.76,-0.84 v 0 l 294.6,-186.28 -15.41,-253.25 a 921.33,921.33 0 0 0 -98.8,-20.78 l 1,-0.62 a 1007.36,1007.36 0 0 0 -129,-8.26 q -41.25,0 -81.67,3.31 l 8.09,133 z m 0.57,-0.36 v 0.22 0 l -0.2,-0.1 z"
           id="path24" />
        <polygon
           class="cls-9"
           points="1286.7,560.68 1286.73,560.66 1286.7,560.11 1286.19,560.44 "
           id="polygon25" />
        <polygon
           class="cls-9"
           points="1286.06,560.45 1286.03,560.47 1286.06,560.49 1286.07,560.51 1286.19,560.44 1286.13,560.41 "
           id="polygon26" />
        <path
           class="cls-5"
           d="m 1637.43,668.61 v 0 l 0.13,2.1 196.07,-124 A 921.92,921.92 0 0 0 1624,450.29 l 13.29,218.41 z"
           id="path26" />
        <polygon
           class="cls-10"
           points="673.65,1723.99 673.68,1724.51 674.14,1724.22 "
           id="polygon27" />
        <polygon
           class="cls-11"
           points="957.45,768.24 957.48,768.26 957.48,768.22 "
           id="polygon28" />
        <polygon
           class="cls-11"
           points="1637.41,726.86 1637.38,726.87 1637.41,726.89 "
           id="polygon29" />
        <polygon
           class="cls-5"
           points="1328.14,1251.81 1477.31,1014.36 1308.88,934.59 1308.84,934.61 "
           id="polygon30" />
        <path
           class="cls-3"
           d="m 1638.07,727.15 350.45,166 0.22,-0.14 0.62,-0.39 123.08,-77.83 q -5.13,-7.56 -10.41,-15 A 931.68,931.68 0 0 0 1879.36,577.11 l -1.9,-1.33 -239.39,151.33 z"
           id="path30" />
        <polygon
           class="cls-8"
           points="652.21,1350.38 725.99,1385.33 725.99,1303.15 654.78,1348.18 655.3,1348.42 "
           id="polygon31" />
        <polygon
           class="cls-8"
           points="725.99,1691.44 725.99,1385.39 652.15,1350.42 651.72,1350.69 674.43,1724.04 "
           id="polygon32" />
        <polygon
           class="cls-8"
           points="1328.13,1251.83 1328.11,1251.63 1328.26,1251.4 1328.1,1251.41 1308.83,934.65 1308.83,934.62 1308.8,934.64 1106.78,1062.38 1229.54,1260.49 1231.03,1261.19 1230.04,1261.29 1275.79,1335.14 1301.28,1294.46 1301.33,1294.49 "
           id="polygon33" />
        <path
           class="cls-8"
           d="m 772,959.45 -220.36,-104.36 -48.18,-22.82 6.11,100.47 16.43,270.1 0.73,0.35 59.69,-37.75 139.58,-88.25 v -45.63 a 79.66,79.66 0 0 1 46,-72.11 z m -142.51,16.85 -0.59,-0.27 v 0 0 l 0.55,-0.34 -0.13,-2.11 2,0.94 -1.85,1.17 z"
           id="path33" />
        <polygon
           class="cls-12"
           points="628.9,976.03 629.49,976.3 629.45,975.64 628.9,975.99 "
           id="polygon34" />
        <polygon
           class="cls-12"
           points="628.87,976.01 628.9,976.03 628.9,975.99 "
           id="polygon35" />
        <polygon
           class="cls-5"
           points="629.32,973.53 629.45,975.64 631.3,974.47 "
           id="polygon36" />
        <polygon
           class="cls-6"
           points="651.66,1350.15 651.67,1350.19 651.69,1350.2 651.68,1350.14 "
           id="polygon37" />
        <polygon
           class="cls-6"
           points="651.69,1350.14 651.68,1350.14 "
           id="polygon38" />
        <polygon
           class="cls-6"
           points="651.69,1350.2 651.72,1350.69 652.15,1350.42 "
           id="polygon39" />
        <path
           class="cls-3"
           d="m 258.05,1482.65 q 5.56,18.52 12.18,36.79 l 56.93,27 132.71,62.85 L 579.63,1666 557,1293.67 v 0 l -137.44,86.9 z"
           id="path39" />
        <path
           class="cls-5"
           d="M 339.51,1832.62 493.87,1735 v -0.63 h 0.05 0.05 l 0.55,0.26 v 0 0 0 l 1.62,-1 L 188.68,1588 a 713.16,713.16 0 0 0 150.83,244.62 z"
           id="path40" />
        <path
           class="cls-3"
           d="m 107.93,1012.11 q -5.15,20.14 -9.14,40.51 l 316.6,150 L 392.85,832 v 0 z"
           id="path41" />
        <path
           class="cls-5"
           d="m 35.86,1088.19 a 720.08,720.08 0 0 0 17.54,339.87 v 0 l 31.66,-20 268.17,-169.56 z m 313.83,152.22 z"
           id="path42" />
        <path
           class="cls-5"
           d="M 123.6,620.12 A 711.91,711.91 0 0 0 0,875.69 l 15.85,-10 L 284,696.1 Z"
           id="path43" />
        <polygon
           class="cls-10"
           points="1985.88,893.72 1985.85,893.74 1985.91,894.78 1986.86,894.18 "
           id="polygon43" />
        <polygon
           class="cls-5"
           points="671.13,1726.4 725.99,1752.38 725.99,1691.66 674.45,1724.26 674.43,1724.04 674.14,1724.22 674.39,1724.34 674.43,1724.32 674.43,1724.36 674.39,1724.34 673.7,1724.78 673.76,1725.81 673.73,1725.84 672.76,1725.38 "
           id="polygon44" />
        <polygon
           class="cls-13"
           points="673.73,1725.84 673.76,1725.81 673.7,1724.78 672.76,1725.38 "
           id="polygon45" />
        <polygon
           class="cls-13"
           points="674.43,1724.32 674.39,1724.34 674.43,1724.36 "
           id="polygon46" />
        <path
           class="cls-5"
           d="M 546.75,1805.05 A 930.62,930.62 0 0 0 686,1985.56 L 670.26,1727 Z"
           id="path46" />
        <polygon
           class="cls-9"
           points="670.84,1726.31 670.86,1726.32 670.86,1726.3 "
           id="polygon47" />
        <path
           class="cls-9"
           d="m 1723.94,2225 1,0.44 -0.06,-1 z"
           id="path47" />
        <path
           class="cls-5"
           d="M 1718.82,2083.64 H 1577 a 89.5,89.5 0 0 1 -89.4,-89.4 v -8.16 l -111.12,70.27 v 0 l -268.33,169.67 a 927.59,927.59 0 0 0 243.33,32.29 q 20.27,0 40.3,-0.88 v -0.2 c 91.68,-4.47 197.5,-29.1 283,-59.12 l 0.83,0.39 q 24.87,-9.42 49,-20.21 z"
           id="path48" />
        <polygon
           class="cls-9"
           points="1373.58,2059.08 1374.1,2059.33 1374.07,2058.77 "
           id="polygon48" />
        <path
           class="cls-14"
           d="m 1067.31,1862.21 v 2 L 1211.45,1773 c -0.77,-0.16 -1.54,-0.33 -2.29,-0.52 z"
           id="path49" />
        <polygon
           class="cls-9"
           points="1373.42,2059.12 1373.04,2058.94 1373.07,2059.35 "
           id="polygon49" />
        <polygon
           class="cls-9"
           points="1373.07,2059.35 1373.04,2058.94 1372.91,2058.88 1372.88,2058.9 1372.92,2059.44 "
           id="polygon50" />
        <polygon
           class="cls-9"
           points="1373.55,2059.04 1373.42,2059.12 1373.48,2059.15 1373.55,2059.1 1373.58,2059.08 1373.55,2059.07 "
           id="polygon51" />
        <polygon
           class="cls-9"
           points="1373.07,2059.35 1373.07,2059.41 1373.48,2059.15 1373.42,2059.12 "
           id="polygon52" />
        <polygon
           class="cls-9"
           points="1372.92,2059.44 1372.92,2059.5 1373.07,2059.41 1373.07,2059.35 "
           id="polygon53" />
        <path
           class="cls-7"
           d="m 831.47,2086.07 a 104.81,104.81 0 0 1 -37.64,-7 924.15,924.15 0 0 0 245.21,130 l -9,-148.1 a 105,105 0 0 1 -68.19,25.11 z"
           id="path53" />
        <polygon
           class="cls-10"
           points="1985.96,895.57 1985.93,895.04 1985.47,895.33 "
           id="polygon54" />
        <path
           class="cls-5"
           d="m 1988.76,893.28 v 0 l -1.63,1 222.2,105.23 A 923.77,923.77 0 0 0 2112.57,815 l -123.2,77.9 v 0.63 0 h -0.06 l -0.54,-0.25 v 0 z"
           id="path54" />
        <polygon
           class="cls-10"
           points="1988.77,893.25 1988.75,893.24 1988.76,893.25 "
           id="polygon55" />
        <polygon
           class="cls-10"
           points="1988.76,893.25 1988.73,893.27 1988.76,893.28 "
           id="polygon56" />
        <polygon
           class="cls-10"
           points="1988.75,893.24 1988.74,892.99 1988.52,893.13 "
           id="polygon57" />
        <polygon
           class="cls-11"
           points="2687.87,1228.01 2687.87,1228.04 2687.91,1228.01 2687.89,1228 "
           id="polygon58" />
        <polygon
           class="cls-11"
           points="2733.4,1976.33 2733.4,1976.37 2733.45,1976.35 "
           id="polygon59" />
        <polygon
           class="cls-11"
           points="1985.18,895.24 1985.22,895.22 1985.18,895.2 "
           id="polygon60" />
        <polygon
           class="cls-11"
           points="670.86,1726.27 670.86,1726.3 670.88,1726.29 "
           id="polygon61" />
        <path
           class="cls-3"
           d="m 1458.53,1610 -64.43,105.25 -12.35,20.18 c -5.9,9.43 -20.32,23.94 -34.83,36.17 a 98.62,98.62 0 0 1 -27.1,3.61 H 1233 a 102.07,102.07 0 0 1 -21.52,-2.2 l -4,0.55 1.69,-1.07 c -22.15,-5.37 -40,-18.69 -53.16,-39.79 l -0.36,-0.6 -88.33,-145.74 V 1793 h -0.28 l 0.28,187.58 a 105.21,105.21 0 0 1 -35,78.39 l 9.18,150.93 q 28.73,9.95 58.28,18.05 l 270.57,-171.08 v -0.55 0 l 0.51,0.25 0.12,-0.08 -0.15,-2.44 99.32,-62.79 v -400.2 z"
           id="path61" />
        <polygon
           class="cls-15"
           points="2687.87,1227.99 2687.87,1228.01 2687.89,1228 "
           id="polygon62" />
        <path
           class="cls-8"
           d="m 726,1752.43 -54.9,-26 -0.22,0.14 15.8,259.68 q 27.52,27.75 57.32,53.2 a 104.9,104.9 0 0 1 -18,-58.86 z"
           id="path62" />
        <polygon
           class="cls-10"
           points="670.24,1726.69 670.84,1726.31 670.3,1726.05 670.25,1726.08 670.2,1726.06 "
           id="polygon63" />
        <polygon
           class="cls-16"
           points="670.24,1726.69 670.84,1726.31 670.3,1726.05 670.25,1726.08 670.2,1726.06 "
           id="polygon64"
           style="fill:url(#linearGradient87)" />
        <polygon
           class="cls-10"
           points="670.86,1726.32 670.87,1726.57 671.09,1726.43 "
           id="polygon65" />
        <polygon
           class="cls-17"
           points="670.86,1726.32 670.87,1726.57 671.09,1726.43 "
           id="polygon66"
           style="fill:url(#linear-gradient-2)" />
        <polygon
           class="cls-5"
           points="2007.89,1268.87 1985.18,895.52 1825.24,996.65 1988.54,1260.17 2007.46,1269.14 "
           id="polygon67" />
        <path
           class="cls-3"
           d="M 2210.16,1001.75 1986,895.57 l 22.65,372.3 v 0 l 113.78,-72 100.23,-159.54 q -5.92,-17.4 -12.5,-34.58 z"
           id="path67" />
        <polygon
           class="cls-6"
           points="2011.52,1267.42 2011.49,1267.44 2011.52,1267.45 "
           id="polygon68" />
        <polygon
           class="cls-6"
           points="2007.93,1269.42 2007.92,1269.42 "
           id="polygon69" />
        <polygon
           class="cls-6"
           points="2007.92,1269.36 2007.89,1268.87 2007.46,1269.14 "
           id="polygon70" />
        <path
           class="cls-8"
           d="m 2156,1732.73 c -17.63,28.21 -43.53,42.51 -77,42.51 h -86.85 c -33.44,0 -59.34,-14.3 -77,-42.51 l -0.37,-0.6 -6.7,-11.05 -79.63,50.35 v 225.24 a 89.5,89.5 0 0 1 -89.4,89.4 h -22.69 l 5.76,94.67 a 929.82,929.82 0 0 0 466.29,-462.5 l -18.3,-8.67 z"
           id="path70" />
        <path
           class="cls-8"
           d="m 2170.4,1709.18 18.25,8.64 a 918.66,918.66 0 0 0 39.76,-103.4 z"
           id="path71" />
        <polygon
           class="cls-18"
           points="1330.79,1309.01 1328.56,1310.42 1328.83,1310.55 1331.06,1309.14 "
           id="polygon71" />
        <polygon
           class="cls-18"
           points="1331.59,1308.5 1328.14,1251.81 1328.13,1251.83 1331.58,1308.51 "
           id="polygon72" />
        <polygon
           class="cls-18"
           points="2030.13,1643.25 2030.71,1643.53 2030.66,1642.66 2030.11,1643.01 "
           id="polygon73" />
        <polygon
           class="cls-18"
           points="1002.48,1516.34 1002.5,1516.68 1002.8,1516.49 "
           id="polygon74" />
        <polygon
           class="cls-18"
           points="2030.13,1643.25 2030.17,1643.92 2030.71,1643.57 2030.71,1643.53 "
           id="polygon75" />
        <polygon
           class="cls-18"
           points="2030.11,1643.01 2030.66,1642.66 2030.64,1642.41 2030.06,1642.13 "
           id="polygon76" />
        <polygon
           class="cls-18"
           points="2030.88,1642.52 2030.64,1642.41 2030.66,1642.66 "
           id="polygon77" />
        <polygon
           class="cls-18"
           points="1022.2,1892.7 1022.2,1892.67 1022,1892.58 1022.02,1892.82 "
           id="polygon78" />
        <polygon
           class="cls-18"
           points="1022,1892.58 1021.9,1890.93 1020.45,1891.84 "
           id="polygon79" />
        <polygon
           class="cls-18"
           points="1702.16,1851.32 1702.13,1851.3 1702.13,1851.34 "
           id="polygon80" />
        <polygon
           class="cls-18"
           points="2030.71,1643.57 2030.75,1643.55 2030.71,1643.53 "
           id="polygon81" />
        <polygon
           class="cls-18"
           points="1022.23,1892.68 1022.2,1892.67 1022.2,1892.7 "
           id="polygon82" />
        <polygon
           class="cls-18"
           points="1328.31,1310.87 1328.05,1310.75 1328.02,1310.73 1328.02,1310.77 1328.04,1311.05 "
           id="polygon83" />
        <polygon
           class="cls-18"
           points="999.47,1518.52 999.44,1518.5 999.44,1518.54 "
           id="polygon84" />
        <polygon
           class="cls-18"
           points="1021.54,1892.4 1020.41,1891.87 1019.77,1892.28 1019.85,1893.53 1021.55,1892.45 "
           id="polygon85" />
        <polygon
           class="cls-18"
           points="2029.89,1643.14 2030.13,1643.25 2030.11,1643.01 "
           id="polygon86" />
        <polygon
           class="cls-18"
           points="2030.3,1646.02 2030.17,1643.92 2028.32,1645.09 "
           id="polygon87" />
        <path
           class="cls-8"
           d="m 2508.15,1002.61 h -182.21 c -15.33,0 -25.55,5.11 -34.06,18.73 l -250.33,398.48 c -3.4,6.81 -10.21,6.81 -13.62,0 L 1781,1021.34 c -4.55,-7.28 -9.59,-12.13 -15.64,-15.06 -4.39,-2.42 -9.88,-3.67 -16.42,-3.67 h -184.2 c -6.53,0 -12,1.25 -16.42,3.67 -6,2.93 -11.09,7.78 -15.64,15.06 l -250.32,398.48 c -3.41,6.81 -10.22,6.81 -13.63,0 l -246.92,-398.48 c -8.51,-13.62 -18.73,-18.73 -34,-18.73 H 805.55 a 29,29 0 0 0 -28.95,28.95 v 949 a 54.86,54.86 0 0 0 54.87,54.87 h 130.37 a 54.87,54.87 0 0 0 54.87,-54.87 v -552.23 c 0,-10.21 6.81,-11.92 11.92,-3.4 l 170.29,281 c 8.51,13.62 18.73,18.73 34,18.73 h 86.85 c 15.33,0 25.54,-5.11 34.06,-18.73 l 172,-281 c 3.39,-5.65 7.52,-6.8 9.92,-4 v 575.69 a 38.8,38.8 0 0 0 38.8,38.79 h 164.55 a 38.8,38.8 0 0 0 38.8,-38.79 V 1421 c 2.4,-2.84 6.54,-1.69 9.92,4 l 170.29,281 c 8.52,13.62 18.73,18.73 34.06,18.73 H 2079 c 15.32,0 25.54,-5.11 34.06,-18.73 l 172,-281 c 5.11,-8.52 11.92,-6.81 11.92,3.4 v 552.26 a 54.86,54.86 0 0 0 54.87,54.87 h 130.37 a 54.87,54.87 0 0 0 54.87,-54.87 v -949 a 29,29 0 0 0 -28.94,-29.05 z"
           id="path87" />
      </g>
    </g>
  </g>
</svg>
