<?xml version="1.0" encoding="UTF-8" standalone="no"?>
<!-- Created with Inkscape (http://www.inkscape.org/) -->

<svg
  width="160"
  height="118.846"
  viewBox="0 0 42.333333 31.444671"
  version="1.1"
  id="svg5"
  xml:space="preserve"
  inkscape:version="1.3.2 (091e20e, 2023-11-25, custom)"
  sodipodi:docname="ManoelaM.svg"
  xmlns:inkscape="http://www.inkscape.org/namespaces/inkscape"
  xmlns:sodipodi="http://sodipodi.sourceforge.net/DTD/sodipodi-0.dtd"
  xmlns:xlink="http://www.w3.org/1999/xlink"
  xmlns="http://www.w3.org/2000/svg"
  xmlns:svg="http://www.w3.org/2000/svg"><sodipodi:namedview
     id="namedview7"
     pagecolor="#ffffff"
     bordercolor="#000000"
     borderopacity="0.25"
     inkscape:showpageshadow="2"
     inkscape:pageopacity="0.0"
     inkscape:pagecheckerboard="0"
     inkscape:deskcolor="#d1d1d1"
     inkscape:document-units="mm"
     showgrid="false"
     inkscape:zoom="0.74564394"
     inkscape:cx="595.45847"
     inkscape:cy="346.68021"
     inkscape:window-width="1920"
     inkscape:window-height="1017"
     inkscape:window-x="1358"
     inkscape:window-y="-8"
     inkscape:window-maximized="1"
     inkscape:current-layer="layer1" /><defs
     id="defs2"><style
       id="style132">.cls-1{isolation:isolate;}.cls-2{fill:#e6e6e6;}.cls-3{fill:#7562e0;}.cls-4{fill:url(#Gradiente_sem_nome_6);}.cls-5{fill:url(#Gradiente_sem_nome_6-2);}.cls-6{fill:url(#Gradiente_sem_nome_6-3);}.cls-7{fill:url(#Gradiente_sem_nome_6-4);}.cls-8{fill:url(#Gradiente_sem_nome_6-5);}.cls-9{fill:url(#Gradiente_sem_nome_6-6);}.cls-10{fill:url(#Gradiente_sem_nome_6-7);}.cls-11{fill:url(#Gradiente_sem_nome_6-8);}.cls-12{fill:url(#Gradiente_sem_nome_6-9);}.cls-13{fill:url(#Gradiente_sem_nome_6-10);}.cls-14{fill:url(#Gradiente_sem_nome_6-11);}.cls-15{fill:url(#Gradiente_sem_nome_6-12);}.cls-16{fill:url(#Gradiente_sem_nome_6-13);}.cls-17{fill:url(#Gradiente_sem_nome_6-14);}.cls-18{fill:url(#Gradiente_sem_nome_6-15);}.cls-19{fill:url(#Gradiente_sem_nome_6-16);}.cls-20{fill:url(#Gradiente_sem_nome_6-17);}.cls-21{fill:none;}.cls-22{fill:#da1381;}.cls-23{mix-blend-mode:multiply;}.cls-24{fill:#deddf3;}.cls-25{fill:#3d9a98;}.cls-26{fill:#d3d3e5;}.cls-27{fill:#1f3235;}.cls-28{fill:#005d7f;}.cls-29{fill:#00181e;}.cls-30{fill:#a5a3db;}.cls-31{fill:#8cc6c5;}.cls-32{fill:#e5b7cf;}.cls-33{fill:#998675;}.cls-34{fill:url(#linear-gradient);}.cls-35{fill:url(#linear-gradient-2);}.cls-36{fill:#fff;}</style><linearGradient
       id="Gradiente_sem_nome_6"
       x1="139.73"
       y1="2534.03"
       x2="139.73"
       y2="3080.6299"
       gradientUnits="userSpaceOnUse"><stop
         offset="0.29"
         stop-color="gray"
         stop-opacity="0.2"
         id="stop134" /><stop
         offset="0.45"
         stop-color="#9f9f9f"
         stop-opacity="0.15"
         id="stop136" /><stop
         offset="0.68"
         stop-color="#f2f2f2"
         stop-opacity="0"
         id="stop138" /></linearGradient><linearGradient
       id="Gradiente_sem_nome_6-2"
       x1="441.34"
       y1="2534.03"
       x2="441.34"
       y2="3080.5601"
       xlink:href="#Gradiente_sem_nome_6" /><linearGradient
       id="Gradiente_sem_nome_6-3"
       x1="711.83002"
       y1="2534.03"
       x2="711.83002"
       y2="3080.5601"
       xlink:href="#Gradiente_sem_nome_6" /><linearGradient
       id="Gradiente_sem_nome_6-4"
       x1="999.13"
       y1="2534.03"
       x2="999.13"
       y2="3080.5601"
       xlink:href="#Gradiente_sem_nome_6" /><linearGradient
       id="Gradiente_sem_nome_6-5"
       x1="1250.72"
       y1="2534.03"
       x2="1250.72"
       y2="3080.5601"
       xlink:href="#Gradiente_sem_nome_6" /><linearGradient
       id="Gradiente_sem_nome_6-6"
       x1="1444.09"
       y1="2534.03"
       x2="1444.09"
       y2="3080.6299"
       xlink:href="#Gradiente_sem_nome_6" /><linearGradient
       id="Gradiente_sem_nome_6-7"
       x1="1651.59"
       y1="2534.03"
       x2="1651.59"
       y2="3080.5601"
       xlink:href="#Gradiente_sem_nome_6" /><linearGradient
       id="Gradiente_sem_nome_6-8"
       x1="1948.8101"
       y1="2534.03"
       x2="1948.8101"
       y2="3080.5601"
       xlink:href="#Gradiente_sem_nome_6" /><linearGradient
       id="Gradiente_sem_nome_6-9"
       x1="2263.21"
       y1="2534.03"
       x2="2263.21"
       y2="3080.5601"
       xlink:href="#Gradiente_sem_nome_6" /><linearGradient
       id="Gradiente_sem_nome_6-10"
       x1="2524.73"
       y1="2534.03"
       x2="2524.73"
       y2="3080.5601"
       xlink:href="#Gradiente_sem_nome_6" /><linearGradient
       id="Gradiente_sem_nome_6-11"
       x1="2748.27"
       y1="2534.03"
       x2="2748.27"
       y2="3080.5601"
       xlink:href="#Gradiente_sem_nome_6" /><linearGradient
       id="Gradiente_sem_nome_6-12"
       x1="2961.3"
       y1="2534.03"
       x2="2961.3"
       y2="3080.5601"
       xlink:href="#Gradiente_sem_nome_6" /><linearGradient
       id="Gradiente_sem_nome_6-13"
       x1="3168.22"
       y1="2534.03"
       x2="3168.22"
       y2="3080.5601"
       xlink:href="#Gradiente_sem_nome_6" /><linearGradient
       id="Gradiente_sem_nome_6-14"
       x1="3320.3601"
       y1="2534.03"
       x2="3320.3601"
       y2="3080.5601"
       xlink:href="#Gradiente_sem_nome_6" /><linearGradient
       id="Gradiente_sem_nome_6-15"
       x1="3491.5901"
       y1="2534.03"
       x2="3491.5901"
       y2="3080.5601"
       xlink:href="#Gradiente_sem_nome_6" /><linearGradient
       id="Gradiente_sem_nome_6-16"
       x1="3722.5701"
       y1="2534.03"
       x2="3722.5701"
       y2="3080.5601"
       xlink:href="#Gradiente_sem_nome_6" /><linearGradient
       id="Gradiente_sem_nome_6-17"
       x1="3913.46"
       y1="2534.03"
       x2="3913.46"
       y2="3080.5601"
       xlink:href="#Gradiente_sem_nome_6" /><linearGradient
       id="linear-gradient"
       x1="10939.52"
       y1="13120.46"
       x2="10939.52"
       y2="12779.87"
       gradientTransform="matrix(-0.06,-1,-1,0.06,14961.71,11855.17)"
       gradientUnits="userSpaceOnUse"><stop
         offset="0.17"
         stop-color="#1f191a"
         id="stop157" /><stop
         offset="0.2"
         stop-color="#19262d"
         id="stop159" /><stop
         offset="0.27"
         stop-color="#103a4a"
         id="stop161" /><stop
         offset="0.34"
         stop-color="#094962"
         id="stop163" /><stop
         offset="0.42"
         stop-color="#045472"
         id="stop165" /><stop
         offset="0.5"
         stop-color="#015b7c"
         id="stop167" /><stop
         offset="0.61"
         stop-color="#005d7f"
         id="stop169" /></linearGradient><linearGradient
       id="linear-gradient-2"
       x1="10939.41"
       y1="13120.46"
       x2="10939.41"
       y2="12779.87"
       xlink:href="#linear-gradient" /></defs><g
     inkscape:label="Camada 1"
     inkscape:groupmode="layer"
     id="layer1"><g
       id="Camada_1-2"
       data-name="Camada 1"
       style="isolation:isolate"
       transform="matrix(0.01058048,0,0,0.01058048,-6.7925333e-6,-4.6164914e-5)"><path
         class="cls-2"
         d="m 0,2427.62 h 47 l 93.16,208.08 92.77,-208.08 h 46.58 V 2693 H 235.94 V 2511.23 L 155,2693 H 124.84 L 43.52,2511.23 V 2693 H 0 Z"
         id="path175" /><path
         class="cls-2"
         d="M 496.7,2638.75 H 385.6 L 366.51,2693 h -45.43 l 95.06,-265.72 h 50.4 L 561.6,2693 h -45.81 z m -55.36,-158.82 -43.52,123.32 h 86.66 z"
         id="path177" /><path
         class="cls-2"
         d="M 820.83,2427.24 V 2693 H 777.31 L 646.36,2494.82 V 2693 h -43.53 v -265.76 h 43.53 L 777.31,2625 v -197.76 z"
         id="path179" /><path
         class="cls-2"
         d="m 999.13,2695.64 c -74.83,0 -135.54,-56.13 -135.54,-135.92 0,-79.41 60.71,-135.53 135.54,-135.53 75.59,0 135.53,56.12 135.53,135.53 0,79.79 -59.94,135.92 -135.53,135.92 z m 0,-37.8 c 52.68,0 90.86,-38.18 90.86,-98.12 0,-59.94 -38.18,-97.35 -90.86,-97.35 -52.68,0 -90.87,37.41 -90.87,97.35 0,59.94 38.18,98.12 90.87,98.12 z"
         id="path181" /><path
         class="cls-2"
         d="m 1324,2462.75 h -103.06 v 77.88 h 91.63 v 35.51 h -91.63 v 81.32 H 1324 V 2693 H 1177.42 V 2427.24 H 1324 Z"
         id="path183" /><path
         class="cls-2"
         d="m 1421,2427.62 v 230.22 h 89.71 V 2693 h -133.24 v -265.38 z"
         id="path185" /><path
         class="cls-2"
         d="m 1707,2638.75 h -111.1 l -19.14,54.25 h -45.43 l 95.06,-265.72 h 50.4 L 1771.85,2693 H 1726 Z m -55.36,-158.82 -43.52,123.32 h 86.66 z"
         id="path187" /><path
         class="cls-2"
         d="m 1813.85,2428.77 h 37.41 l 97.74,218.38 97.74,-218.38 h 37 V 2693 H 2049 v -197 l -87.81,197 h -24.44 l -88.19,-197.38 V 2693 h -34.74 z"
         id="path189" /><path
         class="cls-2"
         d="m 2263.21,2695.64 c -74.83,0 -133.63,-56.13 -133.63,-135.92 0,-79.79 58.8,-135.91 133.63,-135.91 75.21,0 133.62,56.12 133.62,135.91 0,79.79 -58.41,135.92 -133.62,135.92 z m 0,-30.16 c 56.12,0 98.11,-40.85 98.11,-105.76 0,-65.28 -42,-105.75 -98.11,-105.75 -56.11,0 -98.12,40.47 -98.12,105.75 0,64.91 41.99,105.76 98.12,105.76 z"
         id="path191" /><path
         class="cls-2"
         d="m 2420.5,2426.86 h 38.56 l 65.67,134.77 65.67,-134.77 h 38.6 l -86.67,165.69 V 2693 h -34.74 v -100.45 z"
         id="path193" /><path
         class="cls-2"
         d="m 2750,2695.64 c -53.45,0 -91.24,-29.78 -92,-73.69 h 37 c 2.29,22.15 17.94,44.29 55,44.29 33.6,0 53.45,-19.09 53.45,-44.29 0,-71.77 -143.93,-26 -143.93,-124.84 0,-43.91 35.51,-73.69 88.19,-73.69 50.78,0 84,27.87 88.2,68.34 h -38.18 c -2.29,-17.94 -19.09,-38.17 -51.54,-38.56 -28.64,-0.76 -51.16,14.13 -51.16,42.76 0,68.72 143.55,26 143.55,124.47 -0.02,37.79 -30.95,75.21 -88.58,75.21 z"
         id="path195" /><path
         class="cls-2"
         d="m 3032.88,2455.11 h -108.42 v 89 h 97 v 28.63 h -97 v 91.63 h 108.42 V 2693 h -143.17 v -266.52 h 143.17 z"
         id="path197" /><path
         class="cls-2"
         d="m 3169.94,2695.64 c -53.45,0 -91.25,-29.78 -92,-73.69 h 37 c 2.29,22.15 17.95,44.29 55,44.29 33.6,0 53.45,-19.09 53.45,-44.29 0,-71.77 -143.93,-26 -143.93,-124.84 0,-43.91 35.5,-73.69 88.19,-73.69 50.78,0 84,27.87 88.19,68.34 h -38.18 c -2.29,-17.94 -19.09,-38.17 -51.54,-38.56 -28.63,-0.76 -51.16,14.13 -51.16,42.76 0,68.72 143.55,26 143.55,124.47 0,37.79 -30.92,75.21 -88.57,75.21 z"
         id="path199" /><path
         class="cls-3"
         d="m 3320.74,2695.26 a 23.68,23.68 0 0 1 0,-47.35 c 12.6,0 22.91,10.31 22.91,23.67 0,13.36 -10.31,23.68 -22.91,23.68 z"
         id="path201" /><path
         class="cls-3"
         d="M 3592.19,2426.1 V 2693 h -26.73 L 3417.71,2468.51 V 2693 H 3391 v -266.9 h 26.72 l 147.75,224.11 V 2426.1 Z"
         id="path203" /><path
         class="cls-3"
         d="m 3792.24,2447.86 h -112.62 v 99.64 h 101.17 v 22.15 h -101.17 v 101.17 h 112.62 V 2693 h -139.35 v -267.29 h 139.35 z"
         id="path205" /><path
         class="cls-3"
         d="m 3825.84,2426.1 h 175.24 v 22.14 H 3927 V 2693 h -26.72 v -244.76 h -74.45 z"
         id="path207" /><path
         class="cls-4"
         d="m 0,2967.64 h 47 l 93.16,-214.31 92.77,214.31 h 46.58 v -273.3 h -43.57 v 187.18 L 155,2694.34 H 124.84 L 43.52,2881.52 V 2694.34 H 0 Z"
         id="path209"
         style="fill:url(#linearGradient487)" /><path
         class="cls-5"
         d="M 496.7,2750.18 H 385.6 l -19.09,-55.84 H 321.08 L 416.14,2968 h 50.4 l 95.06,-273.69 h -45.81 z m -55.36,163.59 -43.52,-127 h 86.66 z"
         id="path211"
         style="fill:url(#Gradiente_sem_nome_6-2)" /><path
         class="cls-6"
         d="M 820.83,2968 V 2694.34 H 777.31 L 646.36,2898.43 V 2694.34 H 602.83 V 2968 h 43.53 L 777.31,2764.3 V 2968 Z"
         id="path213"
         style="fill:url(#Gradiente_sem_nome_6-3)" /><path
         class="cls-7"
         d="m 999.13,2691.59 c -74.83,0 -135.54,57.8 -135.54,140 0,81.79 60.71,139.6 135.54,139.6 75.59,0 135.53,-57.81 135.53,-139.6 0,-82.2 -59.94,-140 -135.53,-140 z m 0,38.93 c 52.68,0 90.86,39.32 90.86,101.06 0,61.74 -38.18,100.27 -90.86,100.27 -52.68,0 -90.87,-38.53 -90.87,-100.27 0,-61.74 38.18,-101.06 90.87,-101.06 z"
         id="path215"
         style="fill:url(#Gradiente_sem_nome_6-4)" /><path
         class="cls-8"
         d="m 1324,2931.46 h -103.06 v -80.22 h 91.63 v -36.57 h -91.63 v -83.76 H 1324 v -36.57 H 1177.42 V 2968 H 1324 Z"
         id="path217"
         style="fill:url(#Gradiente_sem_nome_6-5)" /><path
         class="cls-9"
         d="m 1421,2967.64 v -237.12 h 89.71 v -36.18 h -133.24 v 273.3 z"
         id="path219"
         style="fill:url(#Gradiente_sem_nome_6-6)" /><path
         class="cls-10"
         d="m 1707,2750.18 h -111.1 l -19.09,-55.84 h -45.43 l 95.01,273.66 h 50.4 l 95.06,-273.69 H 1726 Z m -55.36,163.59 -43.52,-127 h 86.66 z"
         id="path221"
         style="fill:url(#Gradiente_sem_nome_6-7)" /><path
         class="cls-11"
         d="m 1813.85,2966.46 h 37.41 l 97.74,-224.93 97.74,224.93 h 37 V 2694.34 H 2049 v 202.91 l -87.81,-202.91 h -24.44 l -88.19,203.3 v -203.3 h -34.74 z"
         id="path223"
         style="fill:url(#Gradiente_sem_nome_6-8)" /><path
         class="cls-12"
         d="m 2263.21,2691.59 c -74.83,0 -133.63,57.8 -133.63,140 0,82.2 58.8,140 133.63,140 75.21,0 133.62,-57.8 133.62,-140 0,-82.2 -58.41,-140 -133.62,-140 z m 0,31.06 c 56.12,0 98.11,42.08 98.11,108.93 0,67.24 -42,108.93 -98.11,108.93 -56.11,0 -98.12,-41.69 -98.12,-108.93 0,-66.85 41.99,-108.93 98.12,-108.93 z"
         id="path225"
         style="fill:url(#Gradiente_sem_nome_6-9)" /><path
         class="cls-13"
         d="m 2420.5,2968.43 h 38.56 l 65.67,-138.82 65.67,138.82 h 38.6 l -86.67,-170.67 v -103.42 h -34.74 v 103.42 z"
         id="path227"
         style="fill:url(#Gradiente_sem_nome_6-10)" /><path
         class="cls-14"
         d="m 2750,2691.59 c -53.45,0 -91.24,30.67 -92,75.89 h 37 c 2.29,-22.81 17.94,-45.61 55,-45.61 33.6,0 53.45,19.66 53.45,45.61 0,73.93 -143.93,26.74 -143.93,128.59 0,45.22 35.51,75.89 88.19,75.89 50.78,0 84,-28.7 88.2,-70.38 h -38.18 c -2.29,18.48 -19.09,39.32 -51.54,39.71 -28.64,0.79 -51.16,-14.55 -51.16,-44 0,-70.78 143.55,-26.74 143.55,-128.2 -0.02,-38.97 -30.95,-77.5 -88.58,-77.5 z"
         id="path229"
         style="fill:url(#Gradiente_sem_nome_6-11)" /><path
         class="cls-15"
         d="m 3032.88,2939.33 h -108.42 v -91.63 h 97 v -29.49 h -97 v -94.38 h 108.42 v -29.49 h -143.17 v 274.48 h 143.17 z"
         id="path231"
         style="fill:url(#Gradiente_sem_nome_6-12)" /><path
         class="cls-16"
         d="m 3169.94,2691.59 c -53.45,0 -91.25,30.67 -92,75.89 h 37 c 2.29,-22.81 17.95,-45.61 55,-45.61 33.6,0 53.45,19.66 53.45,45.61 0,73.93 -143.93,26.74 -143.93,128.59 0,45.22 35.5,75.89 88.19,75.89 50.78,0 84,-28.7 88.19,-70.38 h -38.18 c -2.29,18.48 -19.09,39.32 -51.54,39.71 -28.63,0.79 -51.16,-14.55 -51.16,-44 0,-70.78 143.55,-26.74 143.55,-128.2 0,-38.97 -30.92,-77.5 -88.57,-77.5 z"
         id="path233"
         style="fill:url(#Gradiente_sem_nome_6-13)" /><path
         class="cls-17"
         d="m 3320.74,2692 c -13.36,0 -23.67,10.62 -23.67,24.38 0,13.76 10.31,24.38 23.67,24.38 12.6,0 22.91,-10.62 22.91,-24.38 0,-13.76 -10.31,-24.38 -22.91,-24.38 z"
         id="path235"
         style="fill:url(#Gradiente_sem_nome_6-14)" /><path
         class="cls-18"
         d="m 3592.19,2969.21 v -274.87 h -26.73 l -147.75,231.22 V 2694.34 H 3391 v 274.87 h 26.72 l 147.75,-230.83 v 230.83 z"
         id="path237"
         style="fill:url(#Gradiente_sem_nome_6-15)" /><path
         class="cls-19"
         d="m 3792.24,2946.8 h -112.62 v -102.64 h 101.17 v -22.8 h -101.17 v -104.21 h 112.62 v -22.81 h -139.35 v 275.27 h 139.35 z"
         id="path239"
         style="fill:url(#Gradiente_sem_nome_6-16)" /><path
         class="cls-20"
         d="m 3825.84,2969.21 h 175.24 V 2946.4 H 3927 v -252.06 h -26.72 v 252.06 h -74.45 z"
         id="path241"
         style="fill:url(#Gradiente_sem_nome_6-17)" /><polygon
         class="cls-21"
         points="2007.88,2058.72 2007.36,2059.04 2007.36,2059.07 2007.4,2059.08 2007.88,2058.77 "
         id="polygon243" /><polygon
         class="cls-21"
         points="2558.61,933.47 2458.96,996.48 2459.06,996.65 2619,895.52 2618.98,895.3 "
         id="polygon245" /><polygon
         class="cls-21"
         points="1863.85,1261.29 1934.87,1294.93 1935.15,1294.49 1863.35,1260.49 "
         id="polygon247" /><polygon
         class="cls-21"
         points="2541.54,1720.4 2462.32,1770.49 2462.32,1771.43 2541.95,1721.08 "
         id="polygon249" /><polygon
         class="cls-21"
         points="2271.23,726.89 2284.92,952.01 2285.12,952.01 2271.43,726.98 2271.23,726.89 2271.2,726.87 "
         id="polygon251" /><polygon
         class="cls-21"
         points="983.54,1240.42 983.51,1240.4 983.51,1240.43 "
         id="polygon253" /><polygon
         class="cls-21"
         points="1920.45,545.22 1920.48,545.2 1920.46,544.98 1920.24,545.12 "
         id="polygon255" /><polygon
         class="cls-21"
         points="1308.26,1724.26 1359.81,1691.66 1359.81,1691.44 1308.25,1724.04 "
         id="polygon257" /><polygon
         class="cls-22"
         points="1625.31,743.19 1907.16,876.68 1907.19,876.66 1888.93,576.52 1888.51,576.78 1888.51,576.73 1625.31,743.16 "
         id="polygon259" /><polygon
         class="cls-23"
         points="1897.83,187.29 1897.78,186.53 1897.75,186.51 1897.08,186.94 "
         id="polygon261" /><path
         class="cls-24"
         d="m 1698.54,994.52 0.11,0.17 30.22,48.77 L 1932.61,914.63 1581.3,748.25 1593.69,952 h 27.88 c 33.43,0 59.34,14.31 76.97,42.52 z M 1591.27,768.24 Z"
         id="path263" /><polygon
         class="cls-25"
         points="2271.23,726.89 2271.43,726.98 2271.41,726.74 2271.22,726.86 "
         id="polygon265" /><path
         class="cls-24"
         d="m 2158.91,961.31 c 11.7,-6.17 25,-9.3 39.65,-9.3 h 86.36 l -13.69,-225.12 v 0 l -326.56,206.45 167.51,79.33 11.47,-18.25 c 9.26,-14.82 21.14,-25.98 35.26,-33.11 z"
         id="path267" /><path
         class="cls-22"
         d="m 2382.77,952 c 14.61,0 27.94,3.13 39.64,9.3 14.13,7.13 26,18.29 35.33,33.21 l 0.1,0.17 1.12,1.79 99.65,-63 60.39,-38.17 v 0.22 l 0.28,-0.19 -0.25,-0.11 v 0 0 0 l 0.7,-0.43 -0.07,-1 v 0 0 l 1,0.46 1.62,-1 -350.85,-166.25 13.69,225 z"
         id="path269" /><path
         class="cls-26"
         d="m 2749.09,813 -13.24,-13.23 q 5.28,7.46 10.41,15 z"
         id="path271" /><path
         class="cls-22"
         d="M 1809.14,151.45 A 715,715 0 0 0 1518.68,239.8 L 1823.3,384.07 Z"
         id="path273" /><polygon
         class="cls-22"
         points="1230.8,787.11 1459.86,895.6 1440.64,579.73 1437.26,524.2 1437.23,524.18 1111.08,730.41 "
         id="polygon275" /><path
         class="cls-3"
         d="m 1078.67,691.92 -14.12,-232.16 -83.18,83.18 a 721.29,721.29 0 0 0 -63.63,72.8 l 160.9,76.2 z"
         id="path277" /><path
         class="cls-3"
         d="m 1147.23,533.54 -0.12,-2.11 2,0.94 326.15,-206.23 v 0 L 1455.43,0 a 719.36,719.36 0 0 0 -114,92.83 l -208.87,208.89 14.13,232.16 z"
         id="path279" /><path
         class="cls-24"
         d="m 1564.76,379.9 q -19.21,10.74 -37.8,23 l 7.19,118.1 10.2,167.64 287.48,-181.78 v -0.48 L 1708,447.74 Z"
         id="path281" /><polygon
         class="cls-27"
         points="1896.63,187.22 1897.08,186.94 1896.6,186.71 "
         id="polygon283" /><polygon
         class="cls-27"
         points="1919.33,560.23 1919.36,560.78 1919.85,560.47 "
         id="polygon285" /><path
         class="cls-3"
         d="m 1919.9,545.34 20.4,335.34 v 0 0 0 l 1.78,-1.12 -1.77,-0.84 v 0 L 2235,692.37 2219.59,439.12 a 921.15,921.15 0 0 0 -98.79,-20.78 l 1,-0.62 a 1007.13,1007.13 0 0 0 -129,-8.26 q -41.23,0 -81.66,3.31 l 8.09,133 z m 0.56,-0.36 v 0.22 0 l -0.21,-0.1 z"
         id="path287" /><polygon
         class="cls-27"
         points="1920,560.44 1920.52,560.68 1920.55,560.66 1920.51,560.11 "
         id="polygon289" /><polygon
         class="cls-27"
         points="1919.95,560.41 1919.88,560.45 1919.85,560.47 1919.88,560.49 1919.88,560.51 1920,560.44 "
         id="polygon291" /><path
         class="cls-24"
         d="m 2271.25,668.61 v 0 l 0.13,2.1 196.08,-124 a 922.12,922.12 0 0 0 -209.68,-96.45 l 13.28,218.41 z"
         id="path293" /><polygon
         class="cls-28"
         points="1307.96,1724.22 1307.47,1723.99 1307.5,1724.51 "
         id="polygon295" /><polygon
         class="cls-29"
         points="1591.3,768.22 1591.27,768.24 1591.3,768.26 "
         id="polygon297" /><polygon
         class="cls-29"
         points="2271.23,726.89 2271.22,726.86 2271.2,726.87 "
         id="polygon299" /><polygon
         class="cls-24"
         points="1942.66,934.61 1961.96,1251.81 2111.13,1014.36 1942.69,934.59 "
         id="polygon301" /><path
         class="cls-22"
         d="m 2271.88,727.15 350.46,166 0.22,-0.14 0.61,-0.39 123.09,-77.83 q -5.13,-7.56 -10.41,-15 A 931.86,931.86 0 0 0 2513.18,577.11 l -1.91,-1.33 -239.39,151.33 z"
         id="path303" /><polygon
         class="cls-3"
         points="1288.6,1348.18 1289.12,1348.42 1286.02,1350.38 1359.81,1385.33 1359.81,1303.15 "
         id="polygon305" /><polygon
         class="cls-3"
         points="1285.53,1350.69 1308.25,1724.04 1359.81,1691.44 1359.81,1385.39 1285.96,1350.42 "
         id="polygon307" /><polygon
         class="cls-3"
         points="1864.84,1261.19 1863.85,1261.29 1909.61,1335.14 1935.09,1294.46 1935.15,1294.49 1961.94,1251.83 1961.93,1251.63 1962.07,1251.4 1961.92,1251.41 1942.65,934.65 1942.64,934.62 1942.61,934.64 1740.59,1062.38 1863.35,1260.49 "
         id="polygon309" /><path
         class="cls-3"
         d="m 1405.82,959.45 -220.37,-104.36 -48.18,-22.82 6.11,100.47 16.44,270.1 0.73,0.35 59.69,-37.75 139.57,-88.25 v -45.63 a 79.64,79.64 0 0 1 46.01,-72.11 z m -142.52,16.85 -0.58,-0.27 v 0 0 l 0.54,-0.34 -0.13,-2.11 2,0.94 -1.85,1.17 z"
         id="path311" /><polygon
         class="cls-30"
         points="1262.72,975.99 1262.72,976.03 1263.3,976.3 1263.26,975.64 "
         id="polygon313" /><polygon
         class="cls-30"
         points="1262.72,975.99 1262.68,976.01 1262.72,976.03 "
         id="polygon315" /><polygon
         class="cls-24"
         points="1265.11,974.47 1263.13,973.53 1263.26,975.64 "
         id="polygon317" /><polygon
         class="cls-25"
         points="1285.5,1350.14 1285.48,1350.15 1285.48,1350.19 1285.5,1350.2 "
         id="polygon319" /><polygon
         class="cls-25"
         points=""
         id="polygon321" /><polygon
         class="cls-25"
         points="1285.96,1350.42 1285.5,1350.2 1285.53,1350.69 "
         id="polygon323" /><path
         class="cls-22"
         d="m 891.87,1482.65 q 5.57,18.52 12.17,36.79 l 56.94,27 132.71,62.85 119.76,56.71 -22.65,-372.3 v 0 l -137.45,86.9 z"
         id="path325" /><path
         class="cls-24"
         d="m 973.33,1832.62 154.36,-97.6 v -0.63 0 h 0.06 l 0.54,0.26 v 0 0 0 l 1.63,-1 L 822.49,1588 a 713,713 0 0 0 150.84,244.62 z"
         id="path327" /><path
         class="cls-22"
         d="m 741.74,1012.11 c -3.42,13.43 -6.5,26.94 -9.13,40.51 l 316.6,150 L 1026.66,832 v 0 z"
         id="path329" /><path
         class="cls-24"
         d="m 669.68,1088.19 a 720.2,720.2 0 0 0 17.53,339.87 v 0 l 31.66,-20 268.18,-169.56 z m 313.83,152.22 z"
         id="path331" /><path
         class="cls-24"
         d="M 757.41,620.12 A 711.89,711.89 0 0 0 633.82,875.69 l 15.85,-10 268.17,-169.59 z"
         id="path333" /><polygon
         class="cls-28"
         points="2620.67,894.18 2619.7,893.72 2619.66,893.74 2619.73,894.78 "
         id="polygon335" /><polygon
         class="cls-24"
         points="1308.25,1724.36 1308.21,1724.34 1307.52,1724.78 1307.58,1725.81 1307.55,1725.84 1307.54,1725.84 1306.57,1725.38 1304.95,1726.4 1359.81,1752.38 1359.81,1691.66 1308.26,1724.26 1308.25,1724.04 1307.96,1724.22 1308.21,1724.34 1308.25,1724.32 "
         id="polygon337" /><polygon
         class="cls-31"
         points="1307.55,1725.84 1307.58,1725.81 1307.52,1724.78 1306.57,1725.38 1307.54,1725.84 "
         id="polygon339" /><polygon
         class="cls-31"
         points="1308.25,1724.36 1308.25,1724.32 1308.21,1724.34 "
         id="polygon341" /><path
         class="cls-24"
         d="m 1180.57,1805.05 a 930.62,930.62 0 0 0 139.24,180.51 L 1304.07,1727 Z"
         id="path343" /><polygon
         class="cls-27"
         points="1304.67,1726.3 1304.66,1726.31 1304.67,1726.32 "
         id="polygon345" /><path
         class="cls-27"
         d="m 2357.76,2225 0.95,0.44 -0.06,-1 z"
         id="path347" /><path
         class="cls-24"
         d="m 2352.63,2083.64 h -141.82 a 89.5,89.5 0 0 1 -89.4,-89.4 v -8.16 l -111.12,70.27 v 0 L 1742,2226.05 a 927.72,927.72 0 0 0 243.34,32.29 q 20.25,0 40.3,-0.88 v -0.2 c 91.68,-4.47 197.49,-29.1 283,-59.12 l 0.83,0.39 q 24.86,-9.42 49,-20.21 z"
         id="path349" /><polygon
         class="cls-27"
         points="2007.88,2058.77 2007.4,2059.08 2007.92,2059.33 "
         id="polygon351" /><path
         class="cls-32"
         d="m 1701.13,1862.21 v 2 L 1845.26,1773 c -0.76,-0.16 -1.53,-0.33 -2.29,-0.52 z"
         id="path353" /><polygon
         class="cls-27"
         points="2006.88,2059.35 2007.24,2059.12 2006.86,2058.94 "
         id="polygon355" /><polygon
         class="cls-27"
         points="2006.7,2058.9 2006.73,2059.44 2006.88,2059.35 2006.86,2058.94 2006.73,2058.88 "
         id="polygon357" /><polygon
         class="cls-27"
         points="2007.36,2059.07 2007.36,2059.04 2007.24,2059.12 2007.3,2059.15 2007.37,2059.1 2007.4,2059.08 "
         id="polygon359" /><polygon
         class="cls-27"
         points="2007.24,2059.12 2006.88,2059.35 2006.89,2059.41 2007.3,2059.15 "
         id="polygon361" /><polygon
         class="cls-27"
         points="2006.88,2059.35 2006.73,2059.44 2006.74,2059.5 2006.89,2059.41 "
         id="polygon363" /><path
         class="cls-26"
         d="m 1465.28,2086.07 a 104.81,104.81 0 0 1 -37.64,-7 924.36,924.36 0 0 0 245.22,130 l -9,-148.1 a 105,105 0 0 1 -68.2,25.11 z"
         id="path365" /><polygon
         class="cls-28"
         points="2619.28,895.33 2619.78,895.57 2619.74,895.04 "
         id="polygon367" /><path
         class="cls-24"
         d="m 2622.57,893.28 v 0 l -1.62,1 222.2,105.23 A 924.29,924.29 0 0 0 2746.39,815 l -123.2,77.9 v 0.63 h -0.05 v 0 l -0.54,-0.25 v 0 z"
         id="path369" /><polygon
         class="cls-28"
         points="2622.57,893.25 2622.59,893.25 2622.57,893.24 "
         id="polygon371" /><polygon
         class="cls-28"
         points="2622.57,893.28 2622.57,893.25 2622.55,893.27 "
         id="polygon373" /><polygon
         class="cls-28"
         points="2622.34,893.13 2622.57,893.24 2622.55,892.99 "
         id="polygon375" /><polygon
         class="cls-29"
         points="3321.71,1228 3321.69,1228.01 3321.69,1228.04 3321.73,1228.01 "
         id="polygon377" /><polygon
         class="cls-29"
         points="3367.26,1976.35 3367.22,1976.33 3367.22,1976.37 "
         id="polygon379" /><polygon
         class="cls-29"
         points="2618.99,895.2 2619,895.24 2619.03,895.22 "
         id="polygon381" /><polygon
         class="cls-29"
         points="1304.7,1726.29 1304.67,1726.27 1304.67,1726.3 "
         id="polygon383" /><path
         class="cls-22"
         d="m 2092.34,1610 -64.42,105.25 -12.36,20.18 c -5.89,9.43 -20.31,23.94 -34.83,36.17 a 98.5,98.5 0 0 1 -27.09,3.61 h -86.85 a 102.17,102.17 0 0 1 -21.53,-2.2 l -4,0.55 1.69,-1.07 c -22.14,-5.37 -40,-18.69 -53.15,-39.79 l -0.37,-0.6 -88.32,-145.74 V 1793 h -0.29 l 0.29,187.58 a 105.24,105.24 0 0 1 -35,78.39 l 9.18,150.93 q 28.73,9.95 58.27,18.05 l 270.58,-171.08 v -0.55 0 l 0.52,0.25 0.12,-0.08 -0.15,-2.44 99.31,-62.79 v -400.2 z"
         id="path385" /><polygon
         class="cls-33"
         points="3321.71,1228 3321.69,1227.99 3321.69,1228.01 "
         id="polygon387" /><path
         class="cls-3"
         d="m 1359.81,1752.43 -54.9,-26 -0.22,0.14 15.8,259.68 q 27.52,27.78 57.31,53.2 a 104.9,104.9 0 0 1 -18,-58.86 z"
         id="path389" /><polygon
         class="cls-28"
         points="1304.06,1726.08 1304.02,1726.06 1304.06,1726.69 1304.66,1726.31 1304.11,1726.05 "
         id="polygon391" /><polygon
         class="cls-34"
         points="1304.06,1726.08 1304.02,1726.06 1304.06,1726.69 1304.66,1726.31 1304.11,1726.05 "
         id="polygon393"
         style="fill:url(#linearGradient489)" /><polygon
         class="cls-28"
         points="1304.91,1726.43 1304.67,1726.32 1304.69,1726.57 "
         id="polygon395" /><polygon
         class="cls-35"
         points="1304.91,1726.43 1304.67,1726.32 1304.69,1726.57 "
         id="polygon397"
         style="fill:url(#linear-gradient-2)" /><polygon
         class="cls-24"
         points="2622.35,1260.17 2641.28,1269.14 2641.71,1268.87 2619,895.52 2459.06,996.65 "
         id="polygon399" /><path
         class="cls-22"
         d="m 2844,1001.75 -224.2,-106.18 22.65,372.3 v 0 l 113.78,-72 100.22,-159.54 q -5.9,-17.4 -12.45,-34.58 z"
         id="path401" /><polygon
         class="cls-25"
         points="2645.34,1267.45 2645.34,1267.42 2645.31,1267.44 "
         id="polygon403" /><polygon
         class="cls-25"
         points=""
         id="polygon405" /><polygon
         class="cls-25"
         points="2641.28,1269.14 2641.74,1269.36 2641.71,1268.87 "
         id="polygon407" /><path
         class="cls-3"
         d="m 2789.8,1732.73 c -17.63,28.21 -43.52,42.51 -77,42.51 H 2626 c -33.45,0 -59.34,-14.3 -77,-42.51 l -0.36,-0.6 -6.7,-11.05 -79.63,50.35 v 225.24 a 89.5,89.5 0 0 1 -89.4,89.4 h -22.69 l 5.76,94.67 a 929.68,929.68 0 0 0 466.28,-462.5 l -18.29,-8.67 z"
         id="path409" /><path
         class="cls-3"
         d="m 2804.22,1709.18 18.25,8.64 a 920.53,920.53 0 0 0 39.75,-103.4 z"
         id="path411" /><polygon
         class="cls-36"
         points="1964.87,1309.14 1964.6,1309.01 1962.37,1310.42 1962.64,1310.55 "
         id="polygon413" /><polygon
         class="cls-36"
         points="1965.39,1308.51 1965.41,1308.5 1961.96,1251.81 1961.94,1251.83 "
         id="polygon415" /><polygon
         class="cls-36"
         points="2663.93,1643.01 2663.94,1643.25 2664.53,1643.53 2664.47,1642.66 "
         id="polygon417" /><polygon
         class="cls-36"
         points="1636.62,1516.49 1636.3,1516.34 1636.32,1516.68 "
         id="polygon419" /><polygon
         class="cls-36"
         points="2664.53,1643.53 2663.94,1643.25 2663.98,1643.92 2664.53,1643.57 "
         id="polygon421" /><polygon
         class="cls-36"
         points="2663.88,1642.13 2663.93,1643.01 2664.47,1642.66 2664.46,1642.41 "
         id="polygon423" /><polygon
         class="cls-36"
         points="2664.47,1642.66 2664.7,1642.52 2664.46,1642.41 "
         id="polygon425" /><polygon
         class="cls-36"
         points="1655.83,1892.82 1656.02,1892.7 1656.02,1892.67 1655.82,1892.58 "
         id="polygon427" /><polygon
         class="cls-36"
         points="1654.27,1891.84 1655.82,1892.58 1655.72,1890.93 "
         id="polygon429" /><polygon
         class="cls-36"
         points="2335.95,1851.34 2335.98,1851.32 2335.94,1851.3 "
         id="polygon431" /><polygon
         class="cls-36"
         points="2664.53,1643.53 2664.53,1643.57 2664.56,1643.55 "
         id="polygon433" /><polygon
         class="cls-36"
         points="1656.02,1892.7 1656.05,1892.68 1656.02,1892.67 "
         id="polygon435" /><polygon
         class="cls-36"
         points="1961.84,1310.77 1961.85,1311.05 1962.13,1310.87 1961.87,1310.75 1961.83,1310.73 "
         id="polygon437" /><polygon
         class="cls-36"
         points="1633.26,1518.54 1633.28,1518.52 1633.25,1518.5 "
         id="polygon439" /><polygon
         class="cls-36"
         points="1653.66,1893.53 1655.36,1892.45 1655.36,1892.4 1654.23,1891.87 1653.59,1892.28 "
         id="polygon441" /><polygon
         class="cls-36"
         points="2663.93,1643.01 2663.71,1643.14 2663.94,1643.25 "
         id="polygon443" /><polygon
         class="cls-36"
         points="2662.13,1645.09 2664.11,1646.02 2663.98,1643.92 "
         id="polygon445" /><path
         class="cls-3"
         d="m 3142,1002.61 h -182.25 c -15.32,0 -25.54,5.11 -34.06,18.73 l -250.32,398.48 c -3.4,6.81 -10.22,6.81 -13.62,0 l -246.92,-398.48 c -4.55,-7.28 -9.59,-12.13 -15.64,-15.06 -4.39,-2.42 -9.89,-3.67 -16.42,-3.67 h -184.21 c -6.54,0 -12,1.25 -16.42,3.67 -6,2.93 -11.09,7.78 -15.64,15.06 l -250.33,398.48 c -3.4,6.81 -10.21,6.81 -13.62,0 l -246.92,-398.48 c -8.51,-13.62 -18.73,-18.73 -34.06,-18.73 h -182.21 a 29,29 0 0 0 -28.95,28.95 v 949 a 54.87,54.87 0 0 0 54.87,54.87 h 130.37 a 54.86,54.86 0 0 0 54.87,-54.87 v -552.23 c 0,-10.21 6.81,-11.92 11.92,-3.4 l 170.29,281 c 8.52,13.62 18.73,18.73 34.06,18.73 h 86.85 c 15.32,0 25.54,-5.11 34.06,-18.73 l 172,-281 c 3.38,-5.65 7.52,-6.8 9.92,-4 v 575.69 a 38.8,38.8 0 0 0 38.8,38.79 h 164.51 a 38.8,38.8 0 0 0 38.8,-38.79 V 1421 c 2.4,-2.84 6.53,-1.69 9.92,4 l 170.29,281 c 8.51,13.62 18.73,18.73 34.06,18.73 h 86.84 c 15.33,0 25.55,-5.11 34.06,-18.73 l 172,-281 c 5.11,-8.52 11.92,-6.81 11.92,3.4 v 552.26 a 54.87,54.87 0 0 0 54.87,54.87 H 3116 a 54.86,54.86 0 0 0 54.87,-54.87 v -949 A 29,29 0 0 0 3142,1002.61 Z"
         id="path447" /></g></g></svg>